<?xml version="1.0" encoding="UTF-8"?>
<svg version="1.1" xmlns="http://www.w3.org/2000/svg" width="516" height="180">
<path d="M0 0 C170.28 0 340.56 0 516 0 C516 59.4 516 118.8 516 180 C345.72 180 175.44 180 0 180 C0 120.6 0 61.2 0 0 Z " fill="#080807" transform="translate(0,0)"/>
<path d="M0 0 C4.61053281 2.4444523 7.86362399 6.17547383 9.41862488 11.19087219 C9.96649111 13.8878893 10.02522437 16.41174471 10.05200195 19.16479492 C10.07125481 20.89260445 10.07125481 20.89260445 10.09089661 22.65531921 C10.09828354 23.89699356 10.10567047 25.13866791 10.11328125 26.41796875 C10.121353 27.70053055 10.12942474 28.98309235 10.13774109 30.30451965 C10.15274288 33.02047592 10.1625918 35.73640631 10.17016602 38.45239258 C10.18120034 41.91109805 10.21557508 45.36915484 10.25533772 48.82763195 C10.28796593 52.14938321 10.29229651 55.47106975 10.30078125 58.79296875 C10.31828934 60.02452194 10.33579742 61.25607513 10.35383606 62.52494812 C10.33213292 71.1869671 9.00579044 77.43704555 3.625 84.3125 C-1.73294811 88.45273263 -7.13507345 89.98280756 -13.890625 89.7265625 C-19.77029288 88.96590617 -24.96812258 86.70984624 -29.125 82.4375 C-32.80646746 76.51730233 -34.22730029 71.0379695 -34.30200195 64.0715332 C-34.31483719 63.02306717 -34.32767242 61.97460114 -34.34089661 60.8943634 C-34.34828354 59.77035629 -34.35567047 58.64634918 -34.36328125 57.48828125 C-34.371353 56.3204863 -34.37942474 55.15269135 -34.38774109 53.94950867 C-34.40155797 51.4791308 -34.41229081 49.00873403 -34.42016602 46.53833008 C-34.43168131 44.0216713 -34.45212571 41.50503686 -34.48168945 38.98852539 C-34.52451137 35.34244266 -34.54055637 31.69708473 -34.55078125 28.05078125 C-34.56828934 26.93689529 -34.58579742 25.82300934 -34.60383606 24.67536926 C-34.58265148 16.96910344 -33.73254742 9.37078479 -28.31611633 3.46528625 C-20.93772347 -3.22589045 -9.1266288 -3.60748503 0 0 Z " fill="#F8CF16" transform="translate(422.125,10.5625)"/>
<path d="M0 0 C1.25159912 0.00523682 2.50319824 0.01047363 3.79272461 0.01586914 C4.78942421 0.01799156 4.78942421 0.01799156 5.80625916 0.02015686 C7.93590735 0.02577021 10.06545175 0.03832485 12.19506836 0.05102539 C13.63582205 0.05603868 15.07657739 0.06060188 16.51733398 0.06469727 C20.05577938 0.07574394 23.59416375 0.09301747 27.13256836 0.11352539 C32.08021926 45.13274415 32.08021926 45.13274415 33.94506836 67.61352539 C34.00796051 68.36138306 34.07085266 69.10924072 34.13565063 69.87976074 C34.70083578 76.64770962 35.13256836 83.31040719 35.13256836 90.11352539 C29.52256836 90.11352539 23.91256836 90.11352539 18.13256836 90.11352539 C17.80256836 85.16352539 17.47256836 80.21352539 17.13256836 75.11352539 C13.50256836 75.11352539 9.87256836 75.11352539 6.13256836 75.11352539 C6.13256836 80.06352539 6.13256836 85.01352539 6.13256836 90.11352539 C0.19256836 90.11352539 -5.74743164 90.11352539 -11.86743164 90.11352539 C-11.18407917 80.18557446 -10.38181078 70.27488049 -9.49243164 60.36352539 C-9.29446456 58.14494275 -9.09682428 55.92633114 -8.89920044 53.7077179 C-8.76301978 52.17929252 -8.62668666 50.65088072 -8.49020386 49.1224823 C-7.99861481 43.61106157 -7.51703967 38.09881899 -7.03930664 32.58618164 C-6.83848734 30.27761735 -6.63750443 27.96906736 -6.4364624 25.66052246 C-6.30825817 24.18409684 -6.18068307 22.70761644 -6.05377197 21.2310791 C-5.87623619 19.16699734 -5.69629492 17.10313751 -5.51586914 15.03930664 C-5.4145166 13.86795166 -5.31316406 12.69659668 -5.20874023 11.48974609 C-4.06348341 0.16087865 -4.06348341 0.16087865 0 0 Z " fill="#F7CE16" transform="translate(98.867431640625,8.886474609375)"/>
<path d="M0 0 C4.96118964 1.77869018 9.01697299 4.96773942 11.375 9.7890625 C13.50649806 17.32923688 12.7544028 25.1327488 9.2265625 32.07421875 C8.01440332 33.97738587 6.70074941 35.5803533 5.1875 37.25 C2.72589736 39.74071472 2.72589736 39.74071472 3.0625 42.5 C3.371875 43.325 3.68125 44.15 4 45 C4.350625 46.093125 4.70125 47.18625 5.0625 48.3125 C5.371875 49.199375 5.68125 50.08625 6 51 C6.58007812 50.16855469 6.58007812 50.16855469 7.171875 49.3203125 C7.69265625 48.59585938 8.2134375 47.87140625 8.75 47.125 C9.26046875 46.40570313 9.7709375 45.68640625 10.296875 44.9453125 C12.07503547 42.91429435 13.52701607 42.02144988 16 41 C17.00533667 42.62170379 18.00411907 44.24747237 19 45.875 C19.556875 46.77992187 20.11375 47.68484375 20.6875 48.6171875 C22 51 22 51 22 53 C21.2575 53.70125 20.515 54.4025 19.75 55.125 C16.64868517 58.36728369 14.2670131 61.6559551 13 66 C13.38542657 70.83924469 15.67113116 75.27180919 17.5625 79.6875 C18.21283145 81.21087915 18.86012116 82.73556155 19.50390625 84.26171875 C19.79080322 84.93162842 20.0777002 85.60153809 20.37329102 86.29174805 C21 88 21 88 21 90 C18.20775927 90.08071788 15.41783434 90.14035408 12.625 90.1875 C11.8309375 90.21263672 11.036875 90.23777344 10.21875 90.26367188 C8.14413852 90.29004405 6.06899135 90.15486462 4 90 C3.34 89.01 2.68 88.02 2 87 C1.4225 87.28875 0.845 87.5775 0.25 87.875 C-0.4925 88.24625 -1.235 88.6175 -2 89 C-2.60585938 89.34546875 -3.21171875 89.6909375 -3.8359375 90.046875 C-7.7632417 91.77659021 -11.80047406 91.53823038 -16 91 C-22.0433694 87.9783153 -25.52580468 83.88335274 -27.75 77.5625 C-30.3954262 67.80930779 -30.04313123 57.30262821 -26 48 C-24.3143921 45.10286142 -22.90507668 42.75458384 -20.33203125 40.609375 C-18.76933284 39.08447786 -18.76933284 39.08447786 -19.07421875 36.94921875 C-19.27660156 36.20285156 -19.47898437 35.45648438 -19.6875 34.6875 C-19.87699219 33.94886719 -20.06648438 33.21023437 -20.26171875 32.44921875 C-20.80337561 30.65229362 -21.4124308 28.87532709 -22.05859375 27.11328125 C-24.01065514 20.65770895 -24.2138454 13.5625625 -21.3125 7.4375 C-14.582815 0.34404824 -9.66375692 -1.05356748 0 0 Z " fill="#F8CF16" transform="translate(289,9)"/>
<path d="M0 0 C5.94 0 11.88 0 18 0 C18.495 14.355 18.495 14.355 19 29 C20.93366611 19.83106159 20.93366611 19.83106159 22.85913086 10.66040039 C23.22083374 8.95871704 23.22083374 8.95871704 23.58984375 7.22265625 C23.83597412 6.05484619 24.08210449 4.88703613 24.33569336 3.68383789 C25 1 25 1 26 0 C27.34267413 -0.08631874 28.68974322 -0.10706473 30.03515625 -0.09765625 C30.84404297 -0.09443359 31.65292969 -0.09121094 32.48632812 -0.08789062 C33.33646484 -0.07951172 34.18660156 -0.07113281 35.0625 -0.0625 C35.91650391 -0.05798828 36.77050781 -0.05347656 37.65039062 -0.04882812 C39.76695663 -0.03700373 41.88348685 -0.01906769 44 0 C42.94166384 5.74489373 41.674958 11.41175428 40.23828125 17.07421875 C39.92439453 18.31880859 39.61050781 19.56339844 39.28710938 20.84570312 C38.79760095 22.77528842 38.30796743 24.70487302 37.80541992 26.63110352 C37.31279701 28.5257518 36.83784747 30.42496723 36.36328125 32.32421875 C36.07751221 33.43885498 35.79174316 34.55349121 35.49731445 35.7019043 C34.62693258 41.47411281 36.09781261 46.76608548 37.5234375 52.3515625 C37.8225 53.53363281 38.1215625 54.71570312 38.4296875 55.93359375 C38.74164063 57.15175781 39.05359375 58.36992188 39.375 59.625 C46 85.64777542 46 85.64777542 46 90 C39.73 90 33.46 90 27 90 C23.04 71.685 23.04 71.685 19 53 C18.67 65.21 18.34 77.42 18 90 C12.06 90 6.12 90 0 90 C0 60.3 0 30.6 0 0 Z " fill="#F8CF16" transform="translate(189,9)"/>
<path d="M0 0 C1.06118042 0.00749268 1.06118042 0.00749268 2.14379883 0.01513672 C9.13268618 0.24877099 12.88694227 2.22923461 17.671875 7.0625 C21.31946793 11.16091902 22.25362935 14.24712186 22.22265625 19.60546875 C22.21943359 20.58837891 22.21621094 21.57128906 22.21289062 22.58398438 C22.20032227 24.12022461 22.20032227 24.12022461 22.1875 25.6875 C22.18298828 26.72326172 22.17847656 27.75902344 22.17382812 28.82617188 C22.16204026 31.3841392 22.14410482 33.94207686 22.125 36.5 C16.185 36.5 10.245 36.5 4.125 36.5 C3.795 30.56 3.465 24.62 3.125 18.5 C1.475 18.17 -0.175 17.84 -1.875 17.5 C-3.53992019 19.16492019 -3.0024446 21.15961154 -3.00439453 23.44702148 C-3.00754669 24.50159042 -3.01069885 25.55615936 -3.01394653 26.64268494 C-3.0119223 27.79055984 -3.00989807 28.93843475 -3.0078125 30.12109375 C-3.00876923 31.29132584 -3.00972595 32.46155792 -3.01071167 33.66725159 C-3.01139375 36.14804132 -3.00953752 38.62883282 -3.00537109 41.10961914 C-3.00002803 44.91752111 -3.00531271 48.72530487 -3.01171875 52.53320312 C-3.01105788 54.93750026 -3.00977653 57.34179732 -3.0078125 59.74609375 C-3.00983673 60.89194443 -3.01186096 62.0377951 -3.01394653 63.21836853 C-3.01079437 64.27608963 -3.00764221 65.33381073 -3.00439453 66.42358398 C-3.00359894 67.35766586 -3.00280334 68.29174774 -3.00198364 69.25413513 C-3.02162623 71.53675522 -3.02162623 71.53675522 -1.875 73.5 C-0.555 73.5 0.765 73.5 2.125 73.5 C3.29969444 71.15061112 3.32534889 69.54926795 3.44140625 66.9296875 C3.48330078 66.03378906 3.52519531 65.13789062 3.56835938 64.21484375 C3.60767578 63.27769531 3.64699219 62.34054688 3.6875 61.375 C3.73068359 60.43011719 3.77386719 59.48523438 3.81835938 58.51171875 C3.9245894 56.17465828 4.02531271 53.8373487 4.125 51.5 C10.065 51.5 16.005 51.5 22.125 51.5 C22.23369203 55.31327872 22.31265644 59.12340992 22.375 62.9375 C22.42527344 64.54141602 22.42527344 64.54141602 22.4765625 66.17773438 C22.57491252 74.21784882 21.56048483 80.8736549 15.875 86.875 C8.8158109 91.04633902 2.36384219 92.56888769 -5.875 91.5 C-11.72582701 89.7447519 -15.49536076 86.61773942 -18.875 81.5 C-22.1022432 74.49707213 -22.3151722 67.72943637 -22.2734375 60.125 C-22.27630768 58.96049316 -22.27917786 57.79598633 -22.28213501 56.59619141 C-22.2841674 54.14550284 -22.27869564 51.69479774 -22.26611328 49.24414062 C-22.25004883 45.51134674 -22.26599121 41.77963555 -22.28515625 38.046875 C-22.28317367 35.65624763 -22.2793297 33.26562093 -22.2734375 30.875 C-22.27951019 29.76850098 -22.28558289 28.66200195 -22.2918396 27.52197266 C-22.22169113 19.72271808 -21.41426917 12.49410474 -16.5625 6.125 C-11.59231547 1.27040115 -6.8329789 -0.06305127 0 0 Z " fill="#F9CF16" transform="translate(160.875,8.5)"/>
<path d="M0 0 C12.21 0 24.42 0 37 0 C37 5.94 37 11.88 37 18 C31.06 18 25.12 18 19 18 C19 23.61 19 29.22 19 35 C24.61 35 30.22 35 36 35 C36 40.61 36 46.22 36 52 C30.39 52 24.78 52 19 52 C19 58.6 19 65.2 19 72 C25.27 72 31.54 72 38 72 C38 77.94 38 83.88 38 90 C25.46 90 12.92 90 0 90 C0 60.3 0 30.6 0 0 Z " fill="#F1C916" transform="translate(439,9)"/>
<path d="M0 0 C5.94 0 11.88 0 18 0 C18.09061785 9.36256625 18.1638979 18.72483793 18.20724869 28.08774471 C18.22806215 32.43602317 18.25626449 36.78398424 18.30175781 41.13208008 C18.34543992 45.33369092 18.36918397 49.5349978 18.37950897 53.73681831 C18.38686045 55.33430321 18.40121572 56.93177276 18.42292023 58.52912712 C18.65959895 76.68091483 18.65959895 76.68091483 12.6585083 83.53135681 C7.08582367 88.62153866 0.95947665 90.60674347 -6.44140625 90.34765625 C-12.15861396 89.57081429 -17.08439772 87.42258942 -20.9375 83.0625 C-24.30877896 78.05666154 -25.25043615 74.42275843 -25.1953125 68.38671875 C-25.18886719 67.13955078 -25.18242187 65.89238281 -25.17578125 64.60742188 C-25.15902344 63.31384766 -25.14226562 62.02027344 -25.125 60.6875 C-25.11597656 59.37458984 -25.10695313 58.06167969 -25.09765625 56.70898438 C-25.07411875 53.47257813 -25.03824871 50.23626581 -25 47 C-19.39 47 -13.78 47 -8 47 C-7.93941406 48.63710938 -7.87882812 50.27421875 -7.81640625 51.9609375 C-7.73201032 54.0989678 -7.64736185 56.23698814 -7.5625 58.375 C-7.52318359 59.45523438 -7.48386719 60.53546875 -7.44335938 61.6484375 C-7.40146484 62.6796875 -7.35957031 63.7109375 -7.31640625 64.7734375 C-7.27974854 65.72653809 -7.24309082 66.67963867 -7.20532227 67.66162109 C-7.14236535 70.02132349 -7.14236535 70.02132349 -6 72 C-4.35 72.33 -2.7 72.66 -1 73 C-0.67 48.91 -0.34 24.82 0 0 Z " fill="#FAD116" transform="translate(364,10)"/>
<path d="M0 0 C5.61 0 11.22 0 17 0 C17.04528883 9.11908072 17.08193798 18.23808603 17.10362434 27.35725403 C17.11403573 31.59221596 17.12814633 35.82709658 17.15087891 40.06201172 C17.17270199 44.15336907 17.1845885 48.24464848 17.18975449 52.33605957 C17.19343331 53.89246852 17.20061694 55.44887349 17.21146011 57.00524902 C17.34894455 77.56767985 17.34894455 77.56767985 9.98046875 85.30078125 C4.92958152 89.63438272 -0.86630396 90.62991145 -7.40625 90.41796875 C-13.30648078 89.46717855 -18.25386168 86.70248486 -22.5 82.5625 C-25.39436152 77.61796573 -26.24950272 73.19778515 -26.1953125 67.5078125 C-26.18886719 66.30898437 -26.18242188 65.11015625 -26.17578125 63.875 C-26.15902344 62.6375 -26.14226563 61.4 -26.125 60.125 C-26.11597656 58.86429688 -26.10695312 57.60359375 -26.09765625 56.3046875 C-26.07415894 53.20304319 -26.03829009 50.10149697 -26 47 C-20.06 47 -14.12 47 -8 47 C-7.67 54.92 -7.34 62.84 -7 71 C-5.35 71.33 -3.7 71.66 -2 72 C-0.55551388 69.11102776 -0.83517139 66.57509105 -0.79467773 63.34716797 C-0.78477814 62.66412598 -0.77487854 61.98108398 -0.76467896 61.27734375 C-0.73304691 59.01566047 -0.70829989 56.75395618 -0.68359375 54.4921875 C-0.66302569 52.92562305 -0.64202925 51.35906417 -0.62062073 49.79251099 C-0.56538478 45.66616318 -0.51598225 41.53976517 -0.46777344 37.41333008 C-0.41756952 33.20389326 -0.36187767 28.9945295 -0.30664062 24.78515625 C-0.1990404 16.52349755 -0.09810663 8.2617769 0 0 Z " fill="#FBD216" transform="translate(65,10)"/>
<path d="M0 0 C3.66666667 0 7.33333333 0 11 0 C12.670625 -0.0309375 12.670625 -0.0309375 14.375 -0.0625 C17.2428941 -0.01305355 19.29153531 0.27079797 22 1 C22.33 0.67 22.66 0.34 23 0 C28.73211781 -0.56381487 28.73211781 -0.56381487 31 0 C33.88674304 2.82854663 34.92965571 4.45702527 35.45410156 8.50512695 C35.4331543 9.81956787 35.41220703 11.13400879 35.390625 12.48828125 C35.38496521 13.19147995 35.37930542 13.89467865 35.37347412 14.6191864 C35.35119769 16.85100248 35.30102373 19.08117461 35.25 21.3125 C35.22992343 22.83135691 35.21167468 24.35023916 35.1953125 25.86914062 C35.15136357 29.57995545 35.08239921 33.2898171 35 37 C32.03 37 29.06 37 26 37 C26 27.1 26 17.2 26 7 C24.68 7 23.36 7 22 7 C22 16.9 22 26.8 22 37 C19.03 37 16.06 37 13 37 C13 27.1 13 17.2 13 7 C12.01 7.33 11.02 7.66 10 8 C9.67 17.57 9.34 27.14 9 37 C6.03 37 3.06 37 0 37 C0 24.79 0 12.58 0 0 Z " fill="#F4CC16" transform="translate(271,126)"/>
<path d="M0 0 C3.4375 0.375 3.4375 0.375 5.4375 2.375 C5.7675 1.715 6.0975 1.055 6.4375 0.375 C9.4075 0.375 12.3775 0.375 15.4375 0.375 C15.53658128 5.5527593 15.60906806 10.72996347 15.65722656 15.90844727 C15.67730786 17.66896175 15.70457879 19.42940982 15.73925781 21.18969727 C15.78793112 23.72428802 15.81050305 26.25799495 15.828125 28.79296875 C15.84877014 29.57649216 15.86941528 30.36001556 15.89068604 31.1672821 C15.89223193 34.95567862 15.59780862 37.1240078 13.53808594 40.34887695 C9.94982015 43.80994364 7.40771457 43.56422335 2.5 43.625 C0.63021484 43.66367188 0.63021484 43.66367188 -1.27734375 43.703125 C-4.5625 43.375 -4.5625 43.375 -6.50390625 41.859375 C-6.85324219 41.36953125 -7.20257813 40.8796875 -7.5625 40.375 C-6.9025 39.055 -6.2425 37.735 -5.5625 36.375 C-2.2625 36.375 1.0375 36.375 4.4375 36.375 C4.4375 35.055 4.4375 33.735 4.4375 32.375 C3.344375 32.601875 2.25125 32.82875 1.125 33.0625 C-2.5625 33.375 -2.5625 33.375 -4.4375 32.125 C-7.56936145 27.25321552 -6.78524924 21.50687329 -6.8125 15.9375 C-6.833125 14.88755859 -6.85375 13.83761719 -6.875 12.75585938 C-6.88015625 11.74458984 -6.8853125 10.73332031 -6.890625 9.69140625 C-6.8999707 8.76787354 -6.90931641 7.84434082 -6.91894531 6.89282227 C-6.24945062 2.1637135 -4.72612478 0.49748682 0 0 Z " fill="#F4CC16" transform="translate(459.5625,125.625)"/>
<path d="M0 0 C3.98141263 0.92921138 5.70092914 2.50593608 8.41015625 5.5625 C9.93036772 10.04770407 9.6331291 14.75504589 9.66015625 19.4375 C9.68078125 20.32308594 9.70140625 21.20867187 9.72265625 22.12109375 C9.75393218 27.36763049 9.37067493 31.0363224 6.41015625 35.5625 C3.47807396 38.00590191 1.72193304 38.52909534 -2.08984375 38.9375 C-5.90162054 38.52909534 -7.65776146 38.00590191 -10.58984375 35.5625 C-14.18797831 30.10839336 -14.13971589 24.94313857 -14.15234375 18.625 C-14.18908203 17.66142578 -14.22582031 16.69785156 -14.26367188 15.70507812 C-14.29410752 10.75759538 -14.00314858 7.37235635 -10.8671875 3.41796875 C-7.34004631 -0.07574477 -4.84670527 -0.35089269 0 0 Z " fill="#EAC317" transform="translate(229.58984375,125.4375)"/>
<path d="M0 0 C2.93423195 1.79646854 4.47205355 2.9441071 6 6 C6.37833645 10.24230311 6.41743222 14.49317207 6.5 18.75 C6.55414063 19.93078125 6.60828125 21.1115625 6.6640625 22.328125 C6.79729524 30.77888738 6.79729524 30.77888738 4.58862305 34.16162109 C1.92159736 36.62522035 -0.15195182 37.84228002 -3.73046875 38.5078125 C-10.34850525 37.47670347 -10.34850525 37.47670347 -13.5625 35.125 C-16.96554865 30.09440635 -16.22129644 24.46617476 -16.25 18.625 C-16.270625 17.5834375 -16.29125 16.541875 -16.3125 15.46875 C-16.36186728 5.81744742 -16.36186728 5.81744742 -13 2 C-8.76447144 -0.82368571 -4.97522686 -0.66653757 0 0 Z " fill="#F5CC17" transform="translate(85,126)"/>
<path d="M0 0 C2.97 0 5.94 0 9 0 C9.33 4.62 9.66 9.24 10 14 C10.309375 12.865625 10.61875 11.73125 10.9375 10.5625 C12 7 12 7 13 6 C14.51928038 5.92820036 16.04167482 5.91607993 17.5625 5.9375 C18.38878906 5.94652344 19.21507812 5.95554687 20.06640625 5.96484375 C20.70449219 5.97644531 21.34257812 5.98804687 22 6 C21.79503906 6.61746094 21.59007812 7.23492187 21.37890625 7.87109375 C20.52159092 10.56609937 19.74377811 13.27152902 19 16 C18.80277344 16.70640625 18.60554688 17.4128125 18.40234375 18.140625 C17.09177988 24.80795963 19.57347986 30.57495021 21.87109375 36.7421875 C23 40 23 40 23 43 C20.03 43 17.06 43 14 43 C12.10440566 38.79672559 10.92011417 35.60057086 10 31 C9.67 34.96 9.34 38.92 9 43 C6.03 43 3.06 43 0 43 C0 28.81 0 14.62 0 0 Z " fill="#F4CC16" transform="translate(351,120)"/>
<path d="M0 0 C1.41732422 -0.04253906 1.41732422 -0.04253906 2.86328125 -0.0859375 C6.58115321 0.52085212 8.16781336 1.58242311 10.6875 4.375 C11.17578125 7.609375 11.17578125 7.609375 11 11.125 C10.93232422 12.88070312 10.93232422 12.88070312 10.86328125 14.671875 C10.80527344 15.56390625 10.74726562 16.4559375 10.6875 17.375 C8.0475 17.375 5.4075 17.375 2.6875 17.375 C2.6875 14.405 2.6875 11.435 2.6875 8.375 C1.3675 8.375 0.0475 8.375 -1.3125 8.375 C-1.3125 17.285 -1.3125 26.195 -1.3125 35.375 C0.0075 35.375 1.3275 35.375 2.6875 35.375 C2.6875 31.745 2.6875 28.115 2.6875 24.375 C5.6575 24.375 8.6275 24.375 11.6875 24.375 C11.79614945 26.43632142 11.87338321 28.49931321 11.9375 30.5625 C11.98390625 31.71105469 12.0303125 32.85960937 12.078125 34.04296875 C11.61160212 38.02240888 10.46397426 39.55259142 7.6875 42.375 C3.98318264 44.6387495 0.73369546 44.638751 -3.4453125 43.9921875 C-6.47245215 42.99158485 -7.70106963 41.01774581 -9.3125 38.375 C-11.57741514 33.84516973 -10.5426478 27.59797503 -10.5625 22.625 C-10.583125 21.34882813 -10.60375 20.07265625 -10.625 18.7578125 C-10.63015625 17.52289063 -10.6353125 16.28796875 -10.640625 15.015625 C-10.6499707 13.88672852 -10.65931641 12.75783203 -10.66894531 11.59472656 C-9.88420964 4.50630596 -7.24578898 0.09804857 0 0 Z " fill="#F3CA16" transform="translate(55.3125,119.625)"/>
<path d="M0 0 C4.51315789 2.02631579 4.51315789 2.02631579 6 5 C6.08639869 7.40838678 6.11567764 9.78733881 6.09765625 12.1953125 C6.0962413 12.90275604 6.09482635 13.61019958 6.09336853 14.33908081 C6.087766 16.60109669 6.07521318 18.86301398 6.0625 21.125 C6.05748532 22.65755065 6.05292236 24.19010286 6.04882812 25.72265625 C6.03779577 29.48180888 6.02052952 33.24088772 6 37 C2.33333333 37 -1.33333333 37 -5 37 C-6.9490625 37.1546875 -6.9490625 37.1546875 -8.9375 37.3125 C-12.70038639 37.27152483 -12.70038639 37.27152483 -15 35.1875 C-16.81176481 29.41249967 -17.24793406 23.49586812 -14.5 18 C-12.1044655 16.0835724 -10.66228831 15.46808803 -7.8125 14.5625 C-5.72788854 13.96345338 -5.72788854 13.96345338 -4 13 C-2.85968434 9.92202417 -2.85968434 9.92202417 -3 7 C-3.99 7 -4.98 7 -6 7 C-6 8.32 -6 9.64 -6 11 C-8.97 11 -11.94 11 -15 11 C-15.44823695 7.14516221 -15.27280781 5.41830531 -13.125 2.125 C-8.75327353 -0.847774 -5.14297175 -0.79382487 0 0 Z " fill="#F3CB16" transform="translate(324,126)"/>
<path d="M0 0 C2.97 0 5.94 0 9 0 C9.33 0.66 9.66 1.32 10 2 C10.66 1.34 11.32 0.68 12 0 C15.4375 -0.375 15.4375 -0.375 19 0 C21.65775944 2.41372223 21.98865663 3.88398048 22.34057617 7.48339844 C22.34010423 8.85881543 22.32333368 10.23429315 22.29296875 11.609375 C22.28872391 12.33618469 22.28447906 13.06299438 22.28010559 13.81182861 C22.2633613 16.12493504 22.22571885 18.43715855 22.1875 20.75 C22.17244758 22.32160197 22.15876015 23.89321764 22.14648438 25.46484375 C22.11347195 29.31023415 22.06172056 33.15496756 22 37 C19.03 37 16.06 37 13 37 C13 27.1 13 17.2 13 7 C12.01 7.33 11.02 7.66 10 8 C9.67 17.57 9.34 27.14 9 37 C6.03 37 3.06 37 0 37 C0 24.79 0 12.58 0 0 Z " fill="#F1C917" transform="translate(94,126)"/>
<path d="M0 0 C1.29550781 -0.02126953 1.29550781 -0.02126953 2.6171875 -0.04296875 C5.34275485 0.20751174 6.87185729 0.64151247 9.125 2.1875 C11.71112088 5.66819099 11.32783189 9.23457807 11.25 13.4375 C11.23195313 14.70078125 11.21390625 15.9640625 11.1953125 17.265625 C11.17210937 18.22984375 11.14890625 19.1940625 11.125 20.1875 C6.835 20.1875 2.545 20.1875 -1.875 20.1875 C-1.545 23.4875 -1.215 26.7875 -0.875 30.1875 C-0.215 30.1875 0.445 30.1875 1.125 30.1875 C1.455 27.8775 1.785 25.5675 2.125 23.1875 C5.095 23.1875 8.065 23.1875 11.125 23.1875 C11.5640692 31.82252756 11.5640692 31.82252756 8.125 36.1875 C3.94208 38.27896 -1.33067821 37.75786508 -5.875 37.1875 C-8.89612102 34.51767212 -10.74601312 31.90062373 -11.05200195 27.83666992 C-11.11822128 24.6826779 -11.15990899 21.52957206 -11.1875 18.375 C-11.23100586 16.7343457 -11.23100586 16.7343457 -11.27539062 15.06054688 C-11.33946942 6.97183084 -11.33946942 6.97183084 -8.98046875 2.98828125 C-5.84387224 0.30558924 -4.05614815 0.03009012 0 0 Z " fill="#F0C917" transform="translate(385.875,125.8125)"/>
<path d="M0 0 C4.51315789 2.02631579 4.51315789 2.02631579 6 5 C6.08639869 7.40838678 6.11567764 9.78733881 6.09765625 12.1953125 C6.0962413 12.90275604 6.09482635 13.61019958 6.09336853 14.33908081 C6.087766 16.60109669 6.07521318 18.86301398 6.0625 21.125 C6.05748532 22.65755065 6.05292236 24.19010286 6.04882812 25.72265625 C6.03779577 29.48180888 6.02052952 33.24088772 6 37 C3.06195004 37.08086376 0.12611925 37.1404283 -2.8125 37.1875 C-3.64587891 37.21263672 -4.47925781 37.23777344 -5.33789062 37.26367188 C-6.54155273 37.27817383 -6.54155273 37.27817383 -7.76953125 37.29296875 C-8.87711792 37.31653442 -8.87711792 37.31653442 -10.00708008 37.34057617 C-12.58714163 36.89966157 -13.44364959 36.0739302 -15 34 C-15.43359375 30.78515625 -15.43359375 30.78515625 -15.4375 27.0625 C-15.45683594 25.83660156 -15.47617188 24.61070312 -15.49609375 23.34765625 C-14.91730481 19.44197027 -14.12205158 18.33046758 -11 16 C-9.1746875 15.319375 -9.1746875 15.319375 -7.3125 14.625 C-6.219375 14.08875 -5.12625 13.5525 -4 13 C-2.94250443 9.91630113 -2.94250443 9.91630113 -3 7 C-3.99 7 -4.98 7 -6 7 C-6 8.32 -6 9.64 -6 11 C-8.97 11 -11.94 11 -15 11 C-15.44823695 7.14516221 -15.27280781 5.41830531 -13.125 2.125 C-8.75327353 -0.847774 -5.14297175 -0.79382487 0 0 Z " fill="#F3CB16" transform="translate(167,126)"/>
<path d="M0 0 C2.8125 -0.5 2.8125 -0.5 6 0 C9.46882547 2.68182637 10.85793479 4.1227397 11.56762695 8.50512695 C11.54144287 9.81956787 11.51525879 11.13400879 11.48828125 12.48828125 C11.48120651 13.19147995 11.47413177 13.89467865 11.46684265 14.6191864 C11.43899212 16.85140227 11.3762832 19.08105077 11.3125 21.3125 C11.28740451 22.83134381 11.26459352 24.3502272 11.24414062 25.86914062 C11.18920007 29.58025248 11.10299739 33.28987541 11 37 C8.03 37 5.06 37 2 37 C1.67 27.43 1.34 17.86 1 8 C0.01 7.67 -0.98 7.34 -2 7 C-2 16.9 -2 26.8 -2 37 C-4.97 37 -7.94 37 -11 37 C-11 25.12 -11 13.24 -11 1 C-8.36 1 -5.72 1 -3 1 C-2.67 1.66 -2.34 2.32 -2 3 C-1.34 2.01 -0.68 1.02 0 0 Z " fill="#F3CB16" transform="translate(439,126)"/>
<path d="M0 0 C4.51315789 2.02631579 4.51315789 2.02631579 6 5 C6.06996014 6.70702735 6.08440154 8.41668003 6.0625 10.125 C6.05347656 11.03507813 6.04445312 11.94515625 6.03515625 12.8828125 C6.02355469 13.58148438 6.01195312 14.28015625 6 15 C3.03 15 0.06 15 -3 15 C-3 12.36 -3 9.72 -3 7 C-3.99 7.33 -4.98 7.66 -6 8 C-6 14.93 -6 21.86 -6 29 C-5.01 29.33 -4.02 29.66 -3 30 C-3 27.03 -3 24.06 -3 21 C-0.03 21 2.94 21 6 21 C6.76913438 30.75946068 6.76913438 30.75946068 4.0625 35.125 C0.0453742 37.58446478 -3.31016782 38.28138993 -8 38 C-11.4347107 36.73065039 -12.61845056 35.58436334 -14.609375 32.53515625 C-16.48357834 27.77067867 -16.43865553 23.57122378 -16.375 18.5 C-16.38660156 17.57574219 -16.39820313 16.65148437 -16.41015625 15.69921875 C-16.38746233 10.41153475 -16.04707665 6.52054564 -13 2 C-8.75354956 -0.83096696 -4.98585744 -0.53277903 0 0 Z " fill="#F2CA17" transform="translate(192,126)"/>
<path d="M0 0 C2.97 0 5.94 0 9 0 C10 1 10 1 10.12025452 2.86659241 C10.1169236 4.08903908 10.1169236 4.08903908 10.11352539 5.33618164 C10.11344986 6.2570607 10.11337433 7.17793976 10.11329651 8.12672424 C10.10813522 9.12775681 10.10297394 10.12878937 10.09765625 11.16015625 C10.0962413 12.17975937 10.09482635 13.19936249 10.09336853 14.24986267 C10.08775097 17.52077107 10.0751955 20.79161213 10.0625 24.0625 C10.05748726 26.27408756 10.05292396 28.48567618 10.04882812 30.69726562 C10.03777583 36.13153654 10.02049944 41.56575684 10 47 C6.7 47 3.4 47 0 47 C0 31.49 0 15.98 0 0 Z " fill="#FED416" transform="translate(415,116)"/>
<path d="M0 0 C1.875 0.75 1.875 0.75 2.875 1.75 C2.97897018 3.42708424 3.01352909 5.10852791 3.02026367 6.78881836 C3.02664352 7.86340805 3.03302338 8.93799774 3.03959656 10.04515076 C3.04070938 11.21489944 3.0418222 12.38464813 3.04296875 13.58984375 C3.04629715 14.78227188 3.04962555 15.97470001 3.05305481 17.20326233 C3.05812916 19.73112603 3.06046298 22.25899645 3.06030273 24.78686523 C3.0624886 28.66726654 3.08063757 32.54738346 3.09960938 36.42773438 C3.10254323 38.87760319 3.10452808 41.32747336 3.10546875 43.77734375 C3.11265427 44.94506821 3.11983978 46.11279266 3.12724304 47.31590271 C3.12416641 48.39364456 3.12108978 49.47138641 3.11791992 50.58178711 C3.11934494 51.53363388 3.12076996 52.48548065 3.12223816 53.46617126 C2.875 55.75 2.875 55.75 0.875 57.75 C-1.75 57.375 -1.75 57.375 -4.125 56.75 C-5.10743084 53.80270749 -5.26255563 51.84960455 -5.28613281 48.77539062 C-5.29574036 47.76424194 -5.3053479 46.75309326 -5.31524658 45.71130371 C-5.31949646 44.62063599 -5.32374634 43.52996826 -5.328125 42.40625 C-5.33667511 40.72529236 -5.33667511 40.72529236 -5.34539795 39.01037598 C-5.35484684 36.63990219 -5.36138149 34.26941527 -5.36523438 31.89892578 C-5.37496141 28.26441758 -5.40599518 24.63046971 -5.4375 20.99609375 C-5.44402788 18.69531587 -5.44927919 16.39453393 -5.453125 14.09375 C-5.4654718 13.00308228 -5.4778186 11.91241455 -5.49053955 10.78869629 C-5.48753845 9.77754761 -5.48453735 8.76639893 -5.48144531 7.72460938 C-5.48509094 6.8343103 -5.48873657 5.94401123 -5.49249268 5.0267334 C-4.94702035 1.64735976 -3.58386927 -0.42163168 0 0 Z " fill="#0B0B08" transform="translate(411.125,25.25)"/>
<path d="M0 0 C5.33333333 0 10.66666667 0 16 0 C16 2.31 16 4.62 16 7 C14.02 7.33 12.04 7.66 10 8 C10 17.57 10 27.14 10 37 C6.7 37 3.4 37 0 37 C0 24.79 0 12.58 0 0 Z " fill="#E5C016" transform="translate(333,126)"/>
<path d="M0 0 C2.64 0 5.28 0 8 0 C8 2.64 8 5.28 8 8 C8.99 8 9.98 8 11 8 C11 9.98 11 11.96 11 14 C10.01 14.495 10.01 14.495 9 15 C9 21.93 9 28.86 9 36 C9.66 36.33 10.32 36.66 11 37 C11 38.98 11 40.96 11 43 C7.7 43 4.4 43 1 43 C-0.35700647 40.28598706 -0.1123861 38.15153684 -0.09765625 35.1171875 C-0.09443359 33.95058594 -0.09121094 32.78398437 -0.08789062 31.58203125 C-0.07951172 30.35871094 -0.07113281 29.13539063 -0.0625 27.875 C-0.05798828 26.64394531 -0.05347656 25.41289062 -0.04882812 24.14453125 C-0.0370133 21.09630608 -0.02054028 18.04817686 0 15 C-0.99 15 -1.98 15 -3 15 C-3 12.69 -3 10.38 -3 8 C-2.01 8 -1.02 8 0 8 C0 5.36 0 2.72 0 0 Z " fill="#F6CE17" transform="translate(121,120)"/>
<path d="M0 0 C2.64 0 5.28 0 8 0 C8 2.64 8 5.28 8 8 C8.99 8 9.98 8 11 8 C11 9.98 11 11.96 11 14 C10.01 14 9.02 14 8 14 C8 21.59 8 29.18 8 37 C8.99 37 9.98 37 11 37 C11 38.98 11 40.96 11 43 C7.7 43 4.4 43 1 43 C-0.38308781 40.23382437 -0.11210196 37.98982 -0.09765625 34.8984375 C-0.09282227 33.08085937 -0.09282227 33.08085937 -0.08789062 31.2265625 C-0.07951172 29.95554688 -0.07113281 28.68453125 -0.0625 27.375 C-0.05798828 26.09625 -0.05347656 24.8175 -0.04882812 23.5 C-0.03701203 20.33328708 -0.02053815 17.16666644 0 14 C-0.99 14 -1.98 14 -3 14 C-3 12.02 -3 10.04 -3 8 C-2.01 8 -1.02 8 0 8 C0 5.36 0 2.72 0 0 Z " fill="#FAD116" transform="translate(402,120)"/>
<path d="M0 0 C2.64 0 5.28 0 8 0 C8 2.64 8 5.28 8 8 C8.99 8 9.98 8 11 8 C11 9.98 11 11.96 11 14 C10.01 14 9.02 14 8 14 C8.33 21.26 8.66 28.52 9 36 C9.66 36.33 10.32 36.66 11 37 C11 38.98 11 40.96 11 43 C9.54207116 43.05399736 8.08357288 43.09279177 6.625 43.125 C5.81289062 43.14820313 5.00078125 43.17140625 4.1640625 43.1953125 C2 43 2 43 0 41 C-0.22705078 38.29443359 -0.22705078 38.29443359 -0.1953125 34.8984375 C-0.18886719 33.68671875 -0.18242187 32.475 -0.17578125 31.2265625 C-0.15902344 29.95554688 -0.14226562 28.68453125 -0.125 27.375 C-0.11146484 25.456875 -0.11146484 25.456875 -0.09765625 23.5 C-0.07402303 20.33314833 -0.04107629 17.16666576 0 14 C-0.66 14 -1.32 14 -2 14 C-2 12.02 -2 10.04 -2 8 C-1.34 8 -0.68 8 0 8 C0 5.36 0 2.72 0 0 Z " fill="#FCD216" transform="translate(203,120)"/>
<path d="M0 0 C5 0 10 0 15 0 C15 2.31 15 4.62 15 7 C13.02 7.33 11.04 7.66 9 8 C9 17.57 9 27.14 9 37 C6.03 37 3.06 37 0 37 C0 24.79 0 12.58 0 0 Z " fill="#F3CB17" transform="translate(242,126)"/>
<path d="M0 0 C2.97 0 5.94 0 9 0 C9.33 0.66 9.66 1.32 10 2 C10.66 1.34 11.32 0.68 12 0 C12.99 0 13.98 0 15 0 C15 2.31 15 4.62 15 7 C13.02 7.33 11.04 7.66 9 8 C9 17.57 9 27.14 9 37 C6.03 37 3.06 37 0 37 C0 24.79 0 12.58 0 0 Z " fill="#F6CD16" transform="translate(135,126)"/>
<path d="M0 0 C1.32 0 2.64 0 4 0 C4 2.97 4 5.94 4 9 C7.3 9 10.6 9 14 9 C14.33 8.34 14.66 7.68 15 7 C15 13.6 15 20.2 15 27 C14.34 26.67 13.68 26.34 13 26 C13 22.7 13 19.4 13 16 C10.03 16 7.06 16 4 16 C4 19.63 4 23.26 4 27 C2.68 27 1.36 27 0 27 C0 18.09 0 9.18 0 0 Z " fill="#0E0D08" transform="translate(54,128)"/>
<path d="M0 0 C0.33 0 0.66 0 1 0 C1.43749061 3.99675601 1.86409331 7.99452866 2.28173828 11.9934082 C2.49362247 14.00204192 2.71348496 16.00982903 2.93359375 18.01757812 C3.872754 27.07376622 4.17635686 35.9004761 4 45 C1.69 45 -0.62 45 -3 45 C-3.2847365 35.36509671 -2.3967502 25.89087549 -1.5 16.3125 C-1.3550161 14.72465064 -1.21048156 13.13676018 -1.06640625 11.54882812 C-0.71611013 7.69872591 -0.35975892 3.84922904 0 0 Z " fill="#131109" transform="translate(110,25)"/>
<path d="M0 0 C2.97 0 5.94 0 9 0 C10 1 10 1 10.12025452 2.86659241 C10.1169236 4.08903908 10.1169236 4.08903908 10.11352539 5.33618164 C10.11344986 6.2570607 10.11337433 7.17793976 10.11329651 8.12672424 C10.10813522 9.12775681 10.10297394 10.12878937 10.09765625 11.16015625 C10.0962413 12.17975937 10.09482635 13.19936249 10.09336853 14.24986267 C10.08775097 17.52077107 10.0751955 20.79161213 10.0625 24.0625 C10.05748726 26.27408756 10.05292396 28.48567618 10.04882812 30.69726562 C10.03777584 36.13153357 10.02102063 41.56576197 10 47 C9.67 47 9.34 47 9 47 C9 35.12 9 23.24 9 11 C6.36 11 3.72 11 1 11 C1 22.88 1 34.76 1 47 C0.67 47 0.34 47 0 47 C0 31.49 0 15.98 0 0 Z " fill="#6B5A12" transform="translate(415,116)"/>
<path d="M0 0 C0.33 0 0.66 0 1 0 C1 12.21 1 24.42 1 37 C0.01 37 -0.98 37 -2 37 C-2 35.02 -2 33.04 -2 31 C-2.99 30.67 -3.98 30.34 -5 30 C-5 23.07 -5 16.14 -5 9 C-4.01 8.67 -3.02 8.34 -2 8 C-2.061875 6.576875 -2.061875 6.576875 -2.125 5.125 C-2 2 -2 2 0 0 Z " fill="#25200D" transform="translate(134,126)"/>
<path d="M0 0 C2.93693991 3.46771219 4.57954335 7.32385838 6.25 11.5 C6.53101563 12.16386719 6.81203125 12.82773438 7.1015625 13.51171875 C8.19279253 16.21818531 9.05177376 18.40261046 8.796875 21.34375 C8 23 8 23 6 25 C3.5 24.8125 3.5 24.8125 1 24 C-1.1230081 20.81548785 -1.24884244 20.01526637 -1.23046875 16.3671875 C-1.22853516 15.47902344 -1.22660156 14.59085938 -1.22460938 13.67578125 C-1.21236328 12.75152344 -1.20011719 11.82726562 -1.1875 10.875 C-1.18685547 9.94300781 -1.18621094 9.01101562 -1.18554688 8.05078125 C-1.14028159 1.14028159 -1.14028159 1.14028159 0 0 Z " fill="#131108" transform="translate(277,62)"/>
<path d="M0 0 C0.33 0 0.66 0 1 0 C2.21825857 5.9172559 2.33647378 11.85751516 2.5625 17.875 C2.60568359 18.94492188 2.64886719 20.01484375 2.69335938 21.1171875 C2.79892817 23.74467754 2.90103791 26.37225422 3 29 C2.34 29 1.68 29 1 29 C1 30.98 1 32.96 1 35 C0.67 35 0.34 35 0 35 C0 33.02 0 31.04 0 29 C-0.99 28.67 -1.98 28.34 -3 28 C-3 20.74 -3 13.48 -3 6 C-2.01 6 -1.02 6 0 6 C0 4.02 0 2.04 0 0 Z " fill="#1F1C0A" transform="translate(214,128)"/>
<path d="M0 0 C0.99 0 1.98 0 3 0 C3 7.59 3 15.18 3 23 C1.68 23 0.36 23 -1 23 C-1.02887512 19.35418313 -1.04675585 15.70839537 -1.0625 12.0625 C-1.07087891 11.02158203 -1.07925781 9.98066406 -1.08789062 8.90820312 C-1.09272461 7.42416992 -1.09272461 7.42416992 -1.09765625 5.91015625 C-1.10289307 4.99371338 -1.10812988 4.07727051 -1.11352539 3.13305664 C-1 1 -1 1 0 0 Z " fill="#18150C" transform="translate(79,133)"/>
<path d="M0 0 C1.32 0.33 2.64 0.66 4 1 C4 6.61 4 12.22 4 18 C2.68 18.33 1.36 18.66 0 19 C0 12.73 0 6.46 0 0 Z " fill="#1B180B" transform="translate(462,133)"/>
<path d="M0 0 C3.69230769 0.69230769 3.69230769 0.69230769 5 2 C5.09879565 3.810285 5.12971514 5.62452727 5.125 7.4375 C5.12757813 8.42621094 5.13015625 9.41492188 5.1328125 10.43359375 C5 13 5 13 4 15 C3.34 15 2.68 15 2 15 C-0.41889075 10.06143138 -1.44999897 6.62498715 -1 1 C-0.67 0.67 -0.34 0.34 0 0 Z " fill="#1B180B" transform="translate(283,21)"/>
<path d="M0 0 C0.99 0 1.98 0 3 0 C3 7.59 3 15.18 3 23 C2.01 23 1.02 23 0 23 C0 15.41 0 7.82 0 0 Z " fill="#050505" transform="translate(226,133)"/>
<path d="M0 0 C2.64 0 5.28 0 8 0 C8 2.31 8 4.62 8 7 C5.36 7 2.72 7 0 7 C0 4.69 0 2.38 0 0 Z " fill="#FED416" transform="translate(416,117)"/>
<path d="M0 0 C0.66 0 1.32 0 2 0 C2 3.96 2 7.92 2 12 C1.01 12.33 0.02 12.66 -1 13 C-2.5635348 9.87293041 -2.39958487 6.42017557 -2 3 C-1.34 2.01 -0.68 1.02 0 0 Z " fill="#221E0D" transform="translate(319,144)"/>
<path d="M0 0 C0.66 0 1.32 0 2 0 C2 3.63 2 7.26 2 11 C1.01 11 0.02 11 -1 11 C-1.02688151 9.35425434 -1.04634123 7.70838587 -1.0625 6.0625 C-1.07410156 5.14597656 -1.08570313 4.22945312 -1.09765625 3.28515625 C-1 1 -1 1 0 0 Z " fill="#080908" transform="translate(162,145)"/>
<path d="M0 0 C1.32 0 2.64 0 4 0 C4 2.64 4 5.28 4 8 C2.68 8 1.36 8 0 8 C0 5.36 0 2.72 0 0 Z " fill="#18160B" transform="translate(384,133)"/>
<path d="M0 0 C0.8971875 0.309375 0.8971875 0.309375 1.8125 0.625 C0.69875 1.2746875 0.69875 1.2746875 -0.4375 1.9375 C-2.80583926 3.39079909 -4.99674065 4.92107606 -7.1875 6.625 C-4.6484375 -0.796875 -4.6484375 -0.796875 0 0 Z " fill="#D2AF19" transform="translate(184.1875,126.375)"/>
</svg>
